<?xml version="1.0" encoding="UTF-8" standalone="no"?><svg xmlns="http://www.w3.org/2000/svg" xmlns:xlink="http://www.w3.org/1999/xlink" contentStyleType="text/css" height="321px" preserveAspectRatio="none" style="width:206px;height:321px;background:#FFFFFF;" version="1.1" viewBox="0 0 206 321" width="206px" zoomAndPan="magnify"><defs/><g><rect fill="#F1F1F1" height="40" rx="12.5" ry="12.5" style="stroke:#181818;stroke-width:0.5;" width="50" x="57.14" y="275"/><text fill="#000000" font-family="sans-serif" font-size="14" lengthAdjust="spacing" textLength="6" x="79.14" y="300.7285">x</text><rect fill="#555555" height="8" style="stroke:none;stroke-width:1.0;" width="80" x="42.14" y="207"/><rect fill="#F1F1F1" height="40" rx="12.5" ry="12.5" style="stroke:#181818;stroke-width:0.5;" width="50" x="150.14" y="107"/><text fill="#000000" font-family="sans-serif" font-size="14" lengthAdjust="spacing" textLength="7" x="171.64" y="132.7285">y</text><rect fill="#F1F1F1" height="40" rx="12.5" ry="12.5" style="stroke:#181818;stroke-width:0.5;" width="50" x="26.14" y="7"/><text fill="#000000" font-family="sans-serif" font-size="14" lengthAdjust="spacing" textLength="35" x="33.64" y="32.7285">result</text><rect fill="#F1F1F1" height="40" rx="12.5" ry="12.5" style="stroke:#181818;stroke-width:0.5;" width="50" x="65.14" y="107"/><text fill="#000000" font-family="sans-serif" font-size="14" lengthAdjust="spacing" textLength="6" x="87.14" y="132.7285">z</text><!--MD5=[ee31eb9d5e36db9d8f441adaaa72efc0]
link y to x--><g id="link_y_x"><path d="M168.95,147.3 C162.79,165.36 152.49,192.81 140.14,215 C129.1,234.84 113.81,255.46 101.7,270.66 " fill="none" id="y-to-x" style="stroke:#181818;stroke-width:1.0;"/><polygon fill="#181818" points="98.37,274.8,107.1218,270.2827,101.4987,270.8998,100.8815,265.2768,98.37,274.8" style="stroke:#181818;stroke-width:1.0;"/></g><!--MD5=[1327e7d5b87f26f83d4641029e376e73]
link result to x--><g id="link_result_x"><path d="M43.03,47.06 C29.59,81.44 6,155.74 25.14,215 C31.94,236.04 46.66,256.19 59.43,270.87 " fill="none" id="result-to-x" style="stroke:#181818;stroke-width:1.0;"/><polygon fill="#181818" points="62.98,274.86,59.9881,265.4766,59.6573,271.1237,54.0101,270.7929,62.98,274.86" style="stroke:#181818;stroke-width:1.0;"/></g><!--MD5=[726e441f3f879c3f1fa10c8daa8bcb6d]
link result to y--><g id="link_result_y"><path d="M75.35,47.13 C95.91,63.38 125.46,86.73 147.06,103.81 " fill="none" id="result-to-y" style="stroke:#181818;stroke-width:1.0;"/><polygon fill="#181818" points="151,106.92,146.428,98.1966,147.0804,103.8158,141.4612,104.4681,151,106.92" style="stroke:#181818;stroke-width:1.0;"/></g><!--MD5=[f12b284872cd14d1265df6415053a308]
link result to z--><g id="link_result_z"><path d="M58.85,47.36 C65.04,62.93 73.79,84.9 80.46,101.66 " fill="none" id="result-to-z" style="stroke:#181818;stroke-width:1.0;"/><polygon fill="#181818" points="82.45,106.68,82.8475,96.8392,80.6054,102.0327,75.4118,99.7906,82.45,106.68" style="stroke:#181818;stroke-width:1.0;"/></g><!--MD5=[f8176a9381ef43f7fda1ae1aa9f06aea]
link block to x--><g id="link_block_x"><path d="M82.14,215.11 C82.14,223.98 82.14,249.97 82.14,269.71 " fill="none" id="block-to-x" style="stroke:#181818;stroke-width:1.0;"/><polygon fill="#181818" points="82.14,274.84,86.14,265.84,82.14,269.84,78.14,265.84,82.14,274.84" style="stroke:#181818;stroke-width:1.0;"/></g><!--MD5=[7ecd385406c5b7c03814649120a8472d]
link y to block--><g id="link_y_block"><path d="M153.57,147.02 C133.13,165.04 103.57,191.11 89.77,203.27 " fill="none" id="y-to-block" style="stroke:#181818;stroke-width:1.0;stroke-dasharray:7.0,7.0;"/><polygon fill="#181818" points="85.73,206.84,95.1198,203.8682,89.4733,203.5253,89.8162,197.8788,85.73,206.84" style="stroke:#181818;stroke-width:1.0;"/></g><!--MD5=[ff3cc80006995b97e138571a164c4076]
link result to block--><g id="link_result_block"><path d="M47.51,47.31 C43.73,71.15 39.49,112.74 48.14,147 C53.68,168.93 68.53,191.52 76.65,202.75 " fill="none" id="result-to-block" style="stroke:#181818;stroke-width:1.0;"/><polygon fill="#181818" points="79.67,206.83,77.5305,197.2163,76.6952,202.8112,71.1004,201.976,79.67,206.83" style="stroke:#181818;stroke-width:1.0;"/></g><!--MD5=[7bcc1868001417d3e2a783dd3c528493]
link z to block--><g id="link_z_block"><path d="M88.29,147.02 C86.61,164.26 84.21,188.86 82.96,201.61 " fill="none" id="z-to-block" style="stroke:#181818;stroke-width:1.0;stroke-dasharray:1.0,3.0;"/><polygon fill="#181818" points="82.45,206.84,87.3062,198.2716,82.9362,201.8637,79.3441,197.4937,82.45,206.84" style="stroke:#181818;stroke-width:1.0;"/></g><!--MD5=[ec8cf1f5dea4d0e660a59b01c87273ac]
@startuml xz_impossible
hide empty description

state x

state block <<fork>>

y - -> x
result - -> x
result - -> y
result - -> z

block - -> x
y -[dashed]-> block
result - -> block
z -[dotted]-> block
@enduml

PlantUML version 1.2022.7(Mon Aug 22 11:01:30 MDT 2022)
(GPL source distribution)
Java Runtime: OpenJDK Runtime Environment
JVM: OpenJDK 64-Bit Server VM
Default Encoding: UTF-8
Language: en
Country: US
--></g></svg>