<?xml version="1.0" encoding="UTF-8" standalone="no"?><svg xmlns="http://www.w3.org/2000/svg" xmlns:xlink="http://www.w3.org/1999/xlink" contentStyleType="text/css" height="1064px" preserveAspectRatio="none" style="width:1050px;height:1064px;background:#FFFFFF;" version="1.1" viewBox="0 0 1050 1064" width="1050px" zoomAndPan="magnify"><defs/><g><ellipse cx="516" cy="16" fill="#222222" rx="10" ry="10" style="stroke:none;stroke-width:1.0;"/><g id="Caiman"><rect fill="#F1F1F1" height="55.2188" rx="12.5" ry="12.5" style="stroke:#181818;stroke-width:0.5;" width="354" x="101" y="87"/><line style="stroke:#181818;stroke-width:0.5;" x1="101" x2="455" y1="114.6094" y2="114.6094"/><text fill="#000000" font-family="sans-serif" font-size="14" lengthAdjust="spacing" textLength="48" x="254" y="106.5332">Caiman</text><text fill="#000000" font-family="sans-serif" font-size="14" lengthAdjust="spacing" textLength="334" x="106" y="134.1426">Caiman code (also called High Level Caiman or HLC)</text></g><g id="Caiman_Assembly"><rect fill="#F1F1F1" height="55.2188" rx="12.5" ry="12.5" style="stroke:#181818;stroke-width:0.5;" width="243" x="394.5" y="172"/><line style="stroke:#181818;stroke-width:0.5;" x1="394.5" x2="637.5" y1="199.6094" y2="199.6094"/><text fill="#000000" font-family="sans-serif" font-size="14" lengthAdjust="spacing" textLength="116" x="458" y="191.5332">Caiman_Assembly</text><text fill="#000000" font-family="sans-serif" font-size="14" lengthAdjust="spacing" textLength="223" x="399.5" y="219.1426">Low-level representation of Caiman</text></g><g id="RON"><rect fill="#F1F1F1" height="55.2188" rx="12.5" ry="12.5" style="stroke:#181818;stroke-width:0.5;" width="401" x="642.5" y="172"/><line style="stroke:#181818;stroke-width:0.5;" x1="642.5" x2="1043.5" y1="199.6094" y2="199.6094"/><text fill="#000000" font-family="sans-serif" font-size="14" lengthAdjust="spacing" textLength="30" x="828" y="191.5332">RON</text><text fill="#000000" font-family="sans-serif" font-size="14" lengthAdjust="spacing" textLength="381" x="647.5" y="219.1426">Literal a Rust AST description of a program in the Caiman IR</text></g><g id="Caiman_AST"><rect fill="#F1F1F1" height="55.2188" rx="12.5" ry="12.5" style="stroke:#181818;stroke-width:0.5;" width="450" x="7" y="257"/><line style="stroke:#181818;stroke-width:0.5;" x1="7" x2="457" y1="284.6094" y2="284.6094"/><text fill="#000000" font-family="sans-serif" font-size="14" lengthAdjust="spacing" textLength="83" x="190.5" y="276.5332">Caiman_AST</text><text fill="#000000" font-family="sans-serif" font-size="14" lengthAdjust="spacing" textLength="430" x="12" y="304.1426">A higher-level AST for Caiman, includes non-basic-block control flow</text></g><g id="Assembly_AST"><rect fill="#F1F1F1" height="55.2188" rx="12.5" ry="12.5" style="stroke:#181818;stroke-width:0.5;" width="488" x="275" y="390"/><line style="stroke:#181818;stroke-width:0.5;" x1="275" x2="763" y1="417.6094" y2="417.6094"/><text fill="#000000" font-family="sans-serif" font-size="14" lengthAdjust="spacing" textLength="95" x="471.5" y="409.5332">Assembly_AST</text><text fill="#000000" font-family="sans-serif" font-size="14" lengthAdjust="spacing" textLength="468" x="280" y="437.1426">An AST for Caiman assembly (essentially just Caiman IR code with names)</text></g><g id="Caiman_IR_AST"><rect fill="#F1F1F1" height="55.2188" rx="12.5" ry="12.5" style="stroke:#181818;stroke-width:0.5;" width="442" x="460" y="656"/><line style="stroke:#181818;stroke-width:0.5;" x1="460" x2="902" y1="683.6094" y2="683.6094"/><text fill="#000000" font-family="sans-serif" font-size="14" lengthAdjust="spacing" textLength="104" x="629" y="675.5332">Caiman_IR_AST</text><text fill="#000000" font-family="sans-serif" font-size="14" lengthAdjust="spacing" textLength="422" x="465" y="703.1426">The internal representation of Caiman code, used for typechecking</text></g><g id="Explication_AST"><rect fill="#F1F1F1" height="55.2188" rx="12.5" ry="12.5" style="stroke:#181818;stroke-width:0.5;" width="541" x="248.5" y="523"/><line style="stroke:#181818;stroke-width:0.5;" x1="248.5" x2="789.5" y1="550.6094" y2="550.6094"/><text fill="#000000" font-family="sans-serif" font-size="14" lengthAdjust="spacing" textLength="102" x="468" y="542.5332">Explication_AST</text><text fill="#000000" font-family="sans-serif" font-size="14" lengthAdjust="spacing" textLength="521" x="253.5" y="570.1426">AST used to represent unexplicated Caiman code, currently not in the main branch</text></g><g id="Checked_Caiman_AST"><rect fill="#F1F1F1" height="55.2188" rx="12.5" ry="12.5" style="stroke:#181818;stroke-width:0.5;" width="549" x="406.5" y="789"/><line style="stroke:#181818;stroke-width:0.5;" x1="406.5" x2="955.5" y1="816.6094" y2="816.6094"/><text fill="#000000" font-family="sans-serif" font-size="14" lengthAdjust="spacing" textLength="147" x="607.5" y="808.5332">Checked_Caiman_AST</text><text fill="#000000" font-family="sans-serif" font-size="14" lengthAdjust="spacing" textLength="529" x="411.5" y="836.1426">The representation of Caiman after typechecking (is identical to the Caiman IR AST)</text></g><g id="Rust"><rect fill="#F1F1F1" height="55.2188" rx="12.5" ry="12.5" style="stroke:#181818;stroke-width:0.5;" width="331" x="515.5" y="922"/><line style="stroke:#181818;stroke-width:0.5;" x1="515.5" x2="846.5" y1="949.6094" y2="949.6094"/><text fill="#000000" font-family="sans-serif" font-size="14" lengthAdjust="spacing" textLength="29" x="666.5" y="941.5332">Rust</text><text fill="#000000" font-family="sans-serif" font-size="14" lengthAdjust="spacing" textLength="311" x="520.5" y="969.1426">The Rust code equivalent of the Caiman program</text></g><ellipse cx="681" cy="1048" fill="none" rx="10" ry="10" style="stroke:#222222;stroke-width:1.0;"/><ellipse cx="681.5" cy="1048.5" fill="#222222" rx="6" ry="6" style="stroke:none;stroke-width:1.0;"/><!--MD5=[10fcc0cb763b8b8b095ba4e3f641eeea]
link *start to Caiman--><g id="link_*start_Caiman"><path d="M506.96,20.67 C481.19,31.11 405.54,61.79 348.18,85.04 " fill="none" id="*start-to-Caiman" style="stroke:#181818;stroke-width:1.0;"/><polygon fill="#181818" points="343.39,86.99,353.234,87.2987,348.0205,85.1035,350.2156,79.89,343.39,86.99" style="stroke:#181818;stroke-width:1.0;"/></g><!--MD5=[f2af55e0cdc5222f5eb998d30d519ce6]
link *start to Caiman_Assembly--><g id="link_*start_Caiman_Assembly"><path d="M516,26.25 C516,51.86 516,124.62 516,166.93 " fill="none" id="*start-to-Caiman_Assembly" style="stroke:#181818;stroke-width:1.0;"/><polygon fill="#181818" points="516,171.93,520,162.93,516,166.93,512,162.93,516,171.93" style="stroke:#181818;stroke-width:1.0;"/></g><!--MD5=[520f6a295b74b7666bb4a28a577ec94b]
link *start to RON--><g id="link_*start_RON"><path d="M524.41,21.67 C561.22,42.1 709.82,124.58 790.41,169.31 " fill="none" id="*start-to-RON" style="stroke:#181818;stroke-width:1.0;"/><polygon fill="#181818" points="795.15,171.94,789.2252,164.0726,790.7792,169.5118,785.34,171.0658,795.15,171.94" style="stroke:#181818;stroke-width:1.0;"/></g><!--MD5=[737967a1515da412745cf3d73c1546b7]
link Caiman to Caiman_AST--><g id="link_Caiman_Caiman_AST"><path d="M270.71,142.12 C262.56,171.89 249.36,220.09 240.68,251.79 " fill="none" id="Caiman-to-Caiman_AST" style="stroke:#181818;stroke-width:1.0;"/><polygon fill="#181818" points="239.33,256.73,245.5743,249.1136,240.6564,251.9092,237.8609,246.9913,239.33,256.73" style="stroke:#181818;stroke-width:1.0;"/><text fill="#000000" font-family="sans-serif" font-size="13" lengthAdjust="spacing" textLength="44" x="263" y="204.9951">Parsing</text></g><!--MD5=[5574432e81ee3e943e480f5287b5e105]
link Caiman_Assembly to Assembly_AST--><g id="link_Caiman_Assembly_Assembly_AST"><path d="M516.37,227.42 C516.93,267.41 517.97,342.36 518.56,384.9 " fill="none" id="Caiman_Assembly-to-Assembly_AST" style="stroke:#181818;stroke-width:1.0;"/><polygon fill="#181818" points="518.63,389.92,522.5269,380.8749,518.5729,384.9203,514.5274,380.9663,518.63,389.92" style="stroke:#181818;stroke-width:1.0;"/><text fill="#000000" font-family="sans-serif" font-size="13" lengthAdjust="spacing" textLength="44" x="519" y="289.9951">Parsing</text></g><!--MD5=[fad38ddc123a4075a47cb25adc459100]
link RON to Caiman_IR_AST--><g id="link_RON_Caiman_IR_AST"><path d="M843,227.24 C843,257.15 843,307.04 843,350 C843,350 843,350 843,551.5 C843,599.14 800.12,632.43 758.49,653.53 " fill="none" id="RON-to-Caiman_IR_AST" style="stroke:#181818;stroke-width:1.0;"/><polygon fill="#181818" points="753.94,655.79,763.7793,655.3554,758.415,653.5597,760.2107,648.1954,753.94,655.79" style="stroke:#181818;stroke-width:1.0;"/><text fill="#000000" font-family="sans-serif" font-size="13" lengthAdjust="spacing" textLength="44" x="844" y="422.9951">Parsing</text></g><!--MD5=[f226d678f62497f707a40dd630b89863]
link Caiman_AST to Assembly_AST--><g id="link_Caiman_AST_Assembly_AST"><path d="M278.59,312.13 C305.48,327.04 340.19,345.49 372,360 C393.71,369.91 417.71,379.62 439.91,388.13 " fill="none" id="Caiman_AST-to-Assembly_AST" style="stroke:#181818;stroke-width:1.0;"/><polygon fill="#181818" points="444.62,389.93,437.6415,382.9801,439.9496,388.1447,434.785,390.4527,444.62,389.93" style="stroke:#181818;stroke-width:1.0;"/><text fill="#000000" font-family="sans-serif" font-size="13" lengthAdjust="spacing" textLength="127" x="373" y="356.4951">Control Flow Lowering</text></g><!--MD5=[30a60ae83ba1f4ef91d0ff6e7858a497]
link Assembly_AST to Explication_AST--><g id="link_Assembly_AST_Explication_AST"><path d="M519,445.01 C519,465.91 519,495.14 519,517.38 " fill="none" id="Assembly_AST-to-Explication_AST" style="stroke:#181818;stroke-width:1.0;"/><polygon fill="#181818" points="519,522.58,523,513.58,519,517.58,515,513.58,519,522.58" style="stroke:#181818;stroke-width:1.0;"/><text fill="#000000" font-family="sans-serif" font-size="13" lengthAdjust="spacing" textLength="89" x="520" y="489.4951">Name Lowering</text></g><!--MD5=[ed9033ec71a0cb28eb77065ab557d720]
link Explication_AST to Caiman_IR_AST--><g id="link_Explication_AST_Caiman_IR_AST"><path d="M551.78,578.01 C578.48,599.6 616.17,630.08 643.96,652.55 " fill="none" id="Explication_AST-to-Caiman_IR_AST" style="stroke:#181818;stroke-width:1.0;"/><polygon fill="#181818" points="647.99,655.81,643.5079,647.0401,644.1024,652.6657,638.4769,653.2602,647.99,655.81" style="stroke:#181818;stroke-width:1.0;"/><text fill="#000000" font-family="sans-serif" font-size="13" lengthAdjust="spacing" textLength="64" x="611" y="622.4951">Explication</text></g><!--MD5=[e00ec504f9ec1ede126b004bf2e0672b]
link Caiman_IR_AST to Checked_Caiman_AST--><g id="link_Caiman_IR_AST_Checked_Caiman_AST"><path d="M681,711.01 C681,731.91 681,761.14 681,783.38 " fill="none" id="Caiman_IR_AST-to-Checked_Caiman_AST" style="stroke:#181818;stroke-width:1.0;"/><polygon fill="#181818" points="681,788.58,685,779.58,681,783.58,677,779.58,681,788.58" style="stroke:#181818;stroke-width:1.0;"/><text fill="#000000" font-family="sans-serif" font-size="13" lengthAdjust="spacing" textLength="86" x="682" y="755.4951">Type Checking</text></g><!--MD5=[5470a7d58c07e26d89f6230b5962f450]
link Checked_Caiman_AST to Rust--><g id="link_Checked_Caiman_AST_Rust"><path d="M681,844.01 C681,864.91 681,894.14 681,916.38 " fill="none" id="Checked_Caiman_AST-to-Rust" style="stroke:#181818;stroke-width:1.0;"/><polygon fill="#181818" points="681,921.58,685,912.58,681,916.58,677,912.58,681,921.58" style="stroke:#181818;stroke-width:1.0;"/><text fill="#000000" font-family="sans-serif" font-size="13" lengthAdjust="spacing" textLength="51" x="682" y="888.4951">Codegen</text></g><!--MD5=[137c0f5bffe3ec0e14f3812a0858c784]
link Rust to *end--><g id="link_Rust_*end"><path d="M681,977.12 C681,995.05 681,1018 681,1032.61 " fill="none" id="Rust-to-*end" style="stroke:#181818;stroke-width:1.0;"/><polygon fill="#181818" points="681,1037.95,685,1028.95,681,1032.95,677,1028.95,681,1037.95" style="stroke:#181818;stroke-width:1.0;"/></g><!--MD5=[1727040908cc430eadb278362bb16cd2]
@startuml structure
[*] - -> Caiman
[*] - -> Caiman_Assembly
[*] - -> RON

Caiman - -> Caiman_AST : Parsing
Caiman_Assembly - -> Assembly_AST : Parsing
RON - -> Caiman_IR_AST : Parsing

Caiman_AST - -> Assembly_AST : Control Flow Lowering
Assembly_AST - -> Explication_AST : Name Lowering
Explication_AST - -> Caiman_IR_AST : Explication
Caiman_IR_AST - -> Checked_Caiman_AST : Type Checking
Checked_Caiman_AST - -> Rust : Codegen
Rust - -> [*]

Caiman: Caiman code (also called High Level Caiman or HLC)
Caiman_Assembly: Low-level representation of Caiman
RON: Literal a Rust AST description of a program in the Caiman IR

Caiman_AST: A higher-level AST for Caiman, includes non-basic-block control flow
Assembly_AST: An AST for Caiman assembly (essentially just Caiman IR code with names)

Explication_AST: AST used to represent unexplicated Caiman code, currently not in the main branch
Caiman_IR_AST: The internal representation of Caiman code, used for typechecking
Checked_Caiman_AST: The representation of Caiman after typechecking (is identical to the Caiman IR AST)
Rust : The Rust code equivalent of the Caiman program

@enduml

PlantUML version 1.2022.7(Mon Aug 22 13:01:30 EDT 2022)
(GPL source distribution)
Java Runtime: Java(TM) SE Runtime Environment
JVM: Java HotSpot(TM) Client VM
Default Encoding: Cp1252
Language: en
Country: US
--></g></svg>